<?xml version="1.0" encoding="utf-8"?>
<svg version="1.0" width="128.000000pt" height="98.000000pt" viewBox="0 0 128.000000 98.000000" preserveAspectRatio="xMidYMid meet" xmlns="http://www.w3.org/2000/svg">
  <g transform="translate(0.000000,98.000000) scale(0.100000,-0.100000)" fill="#000000" stroke="none">
    <path d="M 107 855 L 124 820 L 200 820 L 275 820 L 385 600 C 445 479 497 380 500 380 C 503 380 535 440 571 512 L 637 645 L 707 507 L 776 368 L 885 594 L 994 820 L 1072 820 C 1148 820 1131.929 816.341 1147.624 843.049 C 1160.873 865.595 1173.05 884.475 1173.05 888.475 C 1173.05 891.475 1129 890 1067 890 L 955 890 L 865 710 L 775 530 L 706 667 L 637 805 L 571 672 C 535 600 503 540 500 540 C 497 540 455 619 407 715 L 319 890 L 205 890 L 90 890 L 107 855 Z"/>
    <path d="M 160 749.213 C 160 738.213 495 80 500 80 C 503 80 533 139.475 568 208.475 C 602 277.475 633 342.163 638 342.163 C 642 342.163 675 271 710 200 L 775 69 L 942 402 C 1034 585 1112.475 743.212 1112.475 748.212 C 1113.475 752.212 1094 750 1075 750 L 1040 750 L 908 485 L 775 220 L 706 357 L 637 495 L 571 362 C 535 290 503 230 500 230 C 497 230 436 347 365 490 L 235 750 L 198 750 C 177 750 160 752.213 160 749.213 Z"/>
  </g>
</svg>