<?xml version="1.0" encoding="utf-8"?>
<svg height="800px" width="800px" version="1.1" viewBox="0 0 64 64" xmlns="http://www.w3.org/2000/svg">
  <style type="text/css">
	.st0{fill:none;}
	.st1{opacity:0.2;}
	.st2{fill:#808080;}
	.st3{fill:#404040;}
</style>
  <g id="Layer_1" style="" transform="matrix(0.976951, 0, 0, 0.973405, 0.794326, 0.907802)">
    <g>
      <circle class="st0" cx="32" cy="32" r="32"/>
    </g>
    <g class="st1">
      <path class="st2" d="M48,32c0-8.8-7.2-16-16-16c-7.5,0-13.8,5.2-15.5,12.1C11.7,28.9,8,33,8,38c0,5.5,4.5,10,10,10h30 c4.4,0,8-3.6,8-8S52.4,32,48,32z"/>
    </g>
    <g>
      <path class="st3" d="M48,30c0-8.8-7.2-16-16-16c-7.5,0-13.8,5.2-15.5,12.1C11.7,26.9,8,31,8,36c0,5.5,4.5,10,10,10h30 c4.4,0,8-3.6,8-8S52.4,30,48,30z"/>
    </g>
  </g>
  <g id="Layer_2"/>
  <text style="white-space: pre; fill: rgb(128, 128, 128); font-family: Impact, sans-serif; font-size: 3.2px;" x="20.426" y="35.972" transform="matrix(3.761443, 0, 0, 3.177928, -58.090206, -76.738091)">WWH<tspan x="20.426000595092773" dy="1em">​</tspan></text>
</svg>