<?xml version="1.0" encoding="utf-8"?>
<svg class="svg" viewBox="80 80 350 350" xmlns="http://www.w3.org/2000/svg" xmlns:bx="https://boxy-svg.com">
  <path class="path" fill-opacity="0.5" d="M 136.277 122.906 Q 160.457 85.039 184.637 122.906 L 232.997 198.641 Q 257.177 236.508 208.817 236.508 L 112.097 236.508 Q 63.737 236.508 87.917 198.641 Z" bx:shape="triangle 63.737 85.039 193.44 151.469 0.5 0.25 1@c133514b"/>
  <path class="path" fill-opacity="0.5" d="M 317.231 122.269 Q 341.411 84.402 365.591 122.269 L 413.951 198.004 Q 438.131 235.871 389.771 235.871 L 293.051 235.871 Q 244.691 235.871 268.871 198.004 Z" bx:shape="triangle 244.691 84.402 193.44 151.469 0.5 0.25 1@961c559c"/>
  <path class="path" d="M 238.345 278.02 Q 262.525 240.153 286.705 278.02 L 335.065 353.755 Q 359.245 391.622 310.885 391.622 L 214.165 391.622 Q 165.805 391.622 189.985 353.755 Z" style="transform-box: fill-box; transform-origin: 50% 50%;" transform="matrix(-0.999997, -0.002451, 0.002451, -0.999997, -101.988161, 1.014427)" bx:shape="triangle 165.805 240.153 193.44 151.469 0.5 0.25 1@2a309525"/>
  <path class="path" d="M 238.345 278.02 Q 262.525 240.153 286.705 278.02 L 335.065 353.755 Q 359.245 391.622 310.885 391.622 L 214.165 391.622 Q 165.805 391.622 189.985 353.755 Z" style="transform-origin: 262.525px 325.354px;" transform="matrix(-0.999997, -0.002451, 0.002451, -0.999997, 79.765402, 1.383229)" bx:shape="triangle 165.805 240.153 193.44 151.469 0.5 0.25 1@2a309525"/>
</svg>