<?xml version="1.0" encoding="utf-8"?>
<svg class="svg" viewBox="-8.04 0 32.135 32.135" xmlns="http://www.w3.org/2000/svg">
  <g transform="translate(-617.079 -194.333)">
    <path class="path" d="M630.278,196.333a.855.855,0,0,1,.854.854v26.427a.855.855,0,0,1-.854.854H619.933a.855.855,0,0,1-.854-.854V197.187a.855.855,0,0,1,.854-.854h10.345m0-2H619.933a2.854,2.854,0,0,0-2.854,2.854v26.427a2.854,2.854,0,0,0,2.854,2.854h10.345a2.854,2.854,0,0,0,2.854-2.854V197.187a2.854,2.854,0,0,0-2.854-2.854Z"/>
    <circle class="shape" cx="1.144" cy="1.144" r="1.144" transform="translate(623.962 220.375)"/>
    <rect class="shape" x="622.144" y="197.467" width="5.983" height="0.854" fill="none" transform="matrix(1, 0, 0, 1, 0, 1.056977)" rx="0.427" ry="0.427"/>
  </g>
</svg>