<?xml version="1.0" encoding="UTF-8"?>
<svg class="svg" viewBox="0 0 48 48" version="1.1" xmlns="http://www.w3.org/2000/svg" xmlns:xlink="http://www.w3.org/1999/xlink">
    <g class="group" stroke="none" stroke-width="1" fill-rule="evenodd">
        <path d="M21.2820141,31.9498796 L25.7989061,26.4610326 C26.2375773,25.9279671 27.0253256,25.8514454 27.5583911,26.2901167 C28.055919,26.6995432 28.1557464,27.4130546 27.8101895,27.9397718 L27.7293071,28.0496018 L24.8947015,31.4941642 L29.7527854,31.4941642 C30.7624395,31.4941642 31.3388164,32.6182265 30.7975632,33.4311483 L30.724036,33.5310392 L24.2386064,41.5360942 C23.8040274,42.0725011 23.0168878,42.1550489 22.4804808,41.7204699 C21.9798344,41.3148628 21.8745497,40.6021362 22.2160657,40.07279 L22.2961052,39.9623443 L27.1313264,33.9941642 L22.2472146,33.9941642 C21.2332753,33.9941642 20.658057,32.8617583 21.207435,32.0496233 L21.2820141,31.9498796 L25.7989061,26.4610326 L21.2820141,31.9498796 Z M26.0011082,10.0178101 C32.3381703,10.0178101 35.9330779,14.2123909 36.4559068,19.2780629 L36.6158392,19.2780577 C40.6939986,19.2780577 44,22.5755054 44,26.6431133 C44,30.7107212 40.6939986,34.0081689 36.6158392,34.0081689 L32.4933245,34.0090881 C32.8113163,33.5897118 33,33.0668906 33,32.5 C33,32.1493185 32.927796,31.8155011 32.7974434,31.5126035 L36.8041625,31.5129895 C39.3982331,31.5129895 41.5011427,29.3991642 41.5011427,26.7916285 C41.5011427,24.1840929 39.3982331,22.0702676 36.8042083,22.0702676 L35.3835784,22.070314 C34.6322761,22.0703385 33.9761435,21.4781889 33.9761435,20.7235607 C33.9761435,15.8998476 30.2621633,12.5129895 26.0011082,12.5129895 C21.740053,12.5129895 18.0260728,15.9609421 18.0260728,20.7235607 C18.0260728,21.4781889 17.3699402,22.0703385 16.6186379,22.070314 L15.1980538,22.0702676 C12.6039833,22.0702676 10.5010736,24.1840929 10.5010736,26.7916285 C10.5010736,29.3991642 12.6039833,31.5129895 15.1980538,31.5129895 L19.2025566,31.5126035 C19.072204,31.8155011 19,32.1493185 19,32.5 C19,33.0668906 19.1886837,33.5897118 19.5066755,34.0090881 L15.3863771,34.0081689 C11.3082177,34.0081689 8.00221632,30.7107212 8.00221632,26.6431133 C8.00221632,22.6568576 11.1773,19.4102636 15.1426767,19.2819944 L15.5463095,19.2780629 C16.0721799,14.1790956 19.664046,10.0178101 26.0011082,10.0178101 Z M19.9977296,4" />
    </g>
</svg>